<?xml version="1.0" standalone="no"?>
<!DOCTYPE svg PUBLIC "-//W3C//DTD SVG 20010904//EN"
 "http://www.w3.org/TR/2001/REC-SVG-20010904/DTD/svg10.dtd">
<svg version="1.0" xmlns="http://www.w3.org/2000/svg"
 width="282.000000pt" height="293.000000pt" viewBox="0 0 282.000000 293.000000"
 preserveAspectRatio="xMidYMid meet">

<g transform="translate(0.000000,293.000000) scale(0.100000,-0.100000)"
fill="#000000" stroke="none">
<path d="M910 2816 c-81 -30 -195 -90 -292 -155 -88 -58 -151 -114 -268 -240
-84 -90 -192 -290 -238 -441 -42 -138 -55 -250 -49 -423 4 -132 10 -181 32
-267 29 -113 89 -257 136 -331 l30 -47 -21 -53 c-11 -30 -20 -63 -20 -75 0
-32 39 -61 136 -100 119 -48 147 -63 279 -149 110 -71 249 -148 351 -193 40
-17 70 -44 133 -117 69 -79 94 -100 153 -130 150 -75 272 -35 422 137 74 85
78 88 235 167 88 45 215 116 283 160 74 47 166 95 232 122 151 60 166 79 126
168 -11 24 -20 48 -20 53 0 5 18 40 40 76 48 83 103 223 132 339 18 76 21 116
21 293 0 188 -2 213 -25 301 -87 325 -270 581 -541 756 -126 82 -265 151 -324
160 -38 6 -73 -17 -73 -48 0 -43 23 -68 84 -93 138 -55 199 -89 293 -160 250
-188 392 -416 449 -721 22 -121 15 -366 -15 -475 -35 -130 -87 -270 -101 -270
-3 0 -21 35 -39 77 -38 89 -65 123 -97 123 -26 0 -272 -84 -326 -111 -39 -20
-52 -11 -20 13 21 16 226 247 265 300 64 86 107 231 107 357 0 166 -56 315
-156 416 -118 120 -219 165 -374 165 -157 0 -270 -52 -392 -178 l-56 -59 -74
74 c-119 121 -213 163 -362 163 -147 0 -264 -50 -373 -159 -114 -114 -163
-240 -163 -417 0 -190 54 -319 195 -474 153 -167 197 -221 166 -206 -40 21
-232 91 -293 108 -43 11 -50 10 -74 -7 -15 -12 -41 -55 -61 -102 -20 -45 -40
-80 -45 -76 -19 11 -65 130 -94 238 -26 102 -28 124 -29 295 0 172 2 193 29
295 65 250 193 444 406 617 79 65 223 144 324 179 41 15 76 51 76 78 0 9 -7
27 -16 39 -17 25 -50 28 -104 8z m160 -568 c55 -17 111 -53 162 -105 55 -57
148 -173 148 -185 0 -4 8 -8 18 -8 10 0 40 30 71 70 95 125 136 165 208 200
175 86 372 36 482 -125 80 -116 104 -259 67 -403 -27 -108 -78 -176 -307 -414
-113 -117 -275 -286 -360 -375 -84 -90 -157 -163 -161 -163 -4 0 -33 30 -65
67 -32 37 -101 112 -153 167 -200 210 -300 315 -398 416 -151 155 -183 211
-212 358 -22 111 -1 215 67 327 47 78 83 110 163 149 90 43 179 51 270 24z
m-410 -1207 c283 -96 339 -121 452 -208 146 -112 238 -235 279 -378 11 -39 18
-51 19 -35 4 70 89 228 164 304 86 87 174 155 257 196 77 39 448 170 480 170
17 0 40 -45 91 -185 41 -110 42 -114 27 -119 -201 -69 -495 -206 -629 -294
-68 -44 -142 -113 -269 -247 -48 -51 -75 -65 -126 -65 -59 0 -86 18 -199 134
-61 62 -140 133 -176 157 -124 83 -376 209 -559 279 l-109 42 23 62 c13 33 32
81 43 106 10 25 27 66 36 93 10 26 19 47 20 47 1 0 80 -27 176 -59z"/>
</g>
</svg>
